<?xml version="1.0" standalone="no"?>
<!DOCTYPE svg PUBLIC "-//W3C//DTD SVG 20010904//EN"
 "http://www.w3.org/TR/2001/REC-SVG-20010904/DTD/svg10.dtd">
<svg version="1.0" xmlns="http://www.w3.org/2000/svg"
 width="16.000000pt" height="16.000000pt" viewBox="0 0 16.000000 16.000000"
 preserveAspectRatio="xMidYMid meet">

<g transform="translate(0.000000,16.000000) scale(0.100000,-0.100000)"
fill="#000000" stroke="none">
<path d="M0 80 l0 -80 80 0 80 0 0 80 0 80 -80 0 -80 0 0 -80z m65 30 c3 -11
10 -20 15 -20 5 0 12 9 15 20 3 11 11 20 16 20 14 0 11 -37 -6 -54 -8 -8 -15
-22 -15 -30 0 -9 -4 -16 -10 -16 -5 0 -10 7 -10 16 0 8 -7 22 -15 30 -17 17
-20 54 -6 54 5 0 13 -9 16 -20z"/>
</g>
</svg>
