<?xml version="1.0" standalone="no"?>
<!DOCTYPE svg PUBLIC "-//W3C//DTD SVG 20010904//EN"
 "http://www.w3.org/TR/2001/REC-SVG-20010904/DTD/svg10.dtd">
<svg version="1.0" xmlns="http://www.w3.org/2000/svg"
 width="121.000000pt" height="121.000000pt" viewBox="0 0 121.000000 121.000000"
 preserveAspectRatio="xMidYMid meet">
<metadata>
Created by potrace 1.11, written by Peter Selinger 2001-2013
</metadata>
<g transform="translate(0.000000,121.000000) scale(0.100000,-0.100000)"
fill="#000000" stroke="none">
<path d="M905 941 c-16 -10 -38 -27 -47 -37 -101 -114 -97 -498 6 -611 27 -29
41 -36 82 -40 66 -7 105 14 139 70 24 41 53 152 43 162 -2 3 -19 8 -36 11 -30
6 -32 5 -32 -22 -1 -42 -34 -110 -65 -130 -25 -16 -30 -16 -53 -3 -66 37 -99
154 -89 309 10 145 50 220 118 220 34 0 62 -33 79 -95 7 -25 14 -45 16 -45 2
0 15 5 30 12 23 11 25 16 21 50 -8 57 -46 128 -81 149 -39 24 -92 24 -131 0z"/>
<path d="M90 944 c0 -4 32 -92 70 -196 l70 -189 0 -150 0 -149 35 0 35 0 0
143 0 142 72 193 c62 164 73 188 76 158 l3 -36 60 0 59 0 0 -300 0 -300 35 0
35 0 0 300 0 300 60 0 60 0 0 45 0 45 -192 -2 -193 -3 -50 -137 c-27 -76 -52
-138 -55 -138 -3 0 -28 63 -55 140 l-50 140 -37 0 c-21 0 -38 -3 -38 -6z"/>
</g>
</svg>
